# xmcd
#
# Track frame offsets:
# 150
# 11487
# 25417
# 41310
# 58650
# 75012
# 90915
# 102710
# 119202
# 137135
# 150745
# 170097
# 182892
# 197600
#
# Disc length: 2870 seconds
#
#
# Revision: 0
# Processed by: cddbd v1.5.1PL0 Copyright (c) Steve Scherf et al.
# Submitted via: FreeRIP 2.51 
#
DISCID=b40b340e
DTITLE=Various Artist - Golden Anniversary Album, The - Disc 1
DYEAR=1992
DGENRE=Easy Listening
TTITLE0=The Wedding
TTITLE1=We've Only Just Begun
TTITLE2=Tonight I Celebrate My Love For You
TTITLE3=Nothing's Gonna Change My Love
TTITLE4=Unchained Melody
TTITLE5=I Wanna Wake Up With You
TTITLE6=The Anniversary Waltz
TTITLE7=You Decorated My Life
TTITLE8=Can't Stay Away From You
TTITLE9=Cheryl Moana Marie
TTITLE10=When A Woman Loves A Man
TTITLE11=In Dreams
TTITLE12=Could I Have This Dance
TTITLE13=The Anniversary Song
EXTD=
EXTT0=
EXTT1=
EXTT2=
EXTT3=
EXTT4=
EXTT5=
EXTT6=
EXTT7=
EXTT8=
EXTT9=
EXTT10=
EXTT11=
EXTT12=
EXTT13=
PLAYORDER=
